# xmcd CD database file
#
# Track frame offsets:
#	150
#	25525
#	47754
#	68501
#	88133
#	107452
#	124477
#	146959
#	169781
#	204716
#	228674
#
# Disc length: 3295 seconds
#
# Revision: 2
# Processed by: cddbd v1.5.1PL2 Copyright (c) Steve Scherf et al.
# Submitted via: CDex 1.50
#
DISCID=9a0cdd0b
DTITLE=Ulf Wakenius - Notes From The Heart
DYEAR=2005
DGENRE=Jazz
TTITLE0=Memories Of Tomorrow
TTITLE1=Dancing
TTITLE2=Innocence
TTITLE3=The Windup
TTITLE4=My Song
TTITLE5=Mon Coer Est Rouge
TTITLE6=Everything That Lives Laments
TTITLE7=The Cure
TTITLE8=So Tender
TTITLE9=U-Dance
TTITLE10=Prayer
EXTD=YEAR: 2005
EXTT0=
EXTT1=
EXTT2=
EXTT3=
EXTT4=
EXTT5=
EXTT6=
EXTT7=
EXTT8=
EXTT9=
EXTT10=
PLAYORDER=
